<?xml version="1.0" encoding="utf-8"?><!-- Uploaded to: SVG Repo, www.svgrepo.com, Generator: SVG Repo Mixer Tools -->
<svg xmlns="http://www.w3.org/2000/svg">
    <symbol id="icon-back" viewBox="0 0 1024 1024" fill="currentColor">
        <path d="M224 480h640a32 32 0 1 1 0 64H224a32 32 0 0 1 0-64z"/>
        <path d="m237.248 512 265.408 265.344a32 32 0 0 1-45.312 45.312l-288-288a32 32 0 0 1 0-45.312l288-288a32 32 0 1 1 45.312 45.312L237.248 512z"/>
    </symbol>

    <symbol id="icon-add-to-cart" viewBox="0 0 22 22" fill="currentColor">
        <g id="Page-1" stroke="none" stroke-width="1">
            <g id="Dribbble-Light-Preview" transform="translate(-340.000000, -3159.000000)">
                <g id="icons" transform="translate(56.000000, 160.000000)">
                    <path d="M306.000448,3018 C306.000448,3018.552 305.552448,3019 305.000448,3019 L304.000448,3019 C304.000448,3020 304.105448,3021 303.000448,3021 C301.907448,3021 302.000448,3020 302.000448,3019 C301.000448,3019 300.000448,3019.105 300.000448,3018 C300.000448,3016.907 301.000448,3017 302.000448,3017 C302.000448,3016 301.895448,3015 303.000448,3015 C304.104448,3015 304.000448,3016 304.000448,3017 C305.000448,3017 306.000448,3016.895 306.000448,3018 L306.000448,3018 Z M297.000448,3005 L291.000448,3005 L291.000448,3004 C291.000448,3002.346 292.346448,3001 294.000448,3001 C295.654448,3001 297.000448,3002 297.000448,3004 L297.000448,3005 Z M300.694448,3007.859 L301.488448,3013.418 C302.078448,3013.071 302.742448,3012.929 303.454448,3013.038 L302.551448,3006.717 C302.410448,3005.732 301.566448,3005 300.571448,3005 L299.000448,3005 L299.000448,3004 C299.000448,3001 296.757448,2999 294.000448,2999 C291.243448,2999 289.000448,3001.243 289.000448,3004 L289.000448,3005 L287.735448,3005 C286.739448,3005 285.590448,3005.732 285.449448,3006.717 L284.020448,3016.717 C283.848448,3017.922 284.783448,3019 286.000448,3019 L298.000448,3019 L298.000448,3017 L287.153448,3017 C286.545448,3017 286.077448,3016.461 286.163448,3015.859 L287.306448,3007.859 C287.377448,3007.366 287.799448,3007 288.296448,3007 L289.000448,3007 L289.000448,3009 C289.000448,3009.552 289.448448,3010 290.000448,3010 C290.552448,3010 291.000448,3009.552 291.000448,3009 L291.000448,3007 L297.000448,3007 L297.000448,3009 C297.000448,3009.552 297.448448,3010 298.000448,3010 C298.552448,3010 299.000448,3009.552 299.000448,3009 L299.000448,3007 L299.704448,3007 C300.201448,3007 300.623448,3007.366 300.694448,3007.859 L300.694448,3007.859 Z" id="bag_plus-[#1122]"></path>
                </g>
            </g>
        </g>
    </symbol>

    <symbol id="icon-cart" viewBox="0 0 24 24" fill="currentColor">
        <g id="SVGRepo_bgCarrier" stroke-width="0"/>
        <g id="SVGRepo_tracerCarrier" stroke-linecap="round" stroke-linejoin="round"/>
        <g id="SVGRepo_iconCarrier"> <path d="M4.20853 17.8104L3.46191 17.7393L4.20853 17.8104ZM19.7915 17.8104L20.5381 17.7393L19.7915 17.8104ZM19.0296 9.81038L18.2829 9.88149L19.0296 9.81038ZM4.97043 9.81038L5.71705 9.88149L4.97043 9.81038ZM7.24999 11C7.24999 11.4142 7.58578 11.75 7.99999 11.75C8.41421 11.75 8.74999 11.4142 8.74999 11H7.24999ZM15.25 11C15.25 11.4142 15.5858 11.75 16 11.75C16.4142 11.75 16.75 11.4142 16.75 11H15.25ZM6.96142 8.75H17.0386V7.25H6.96142V8.75ZM18.2829 9.88149L19.0448 17.8815L20.5381 17.7393L19.7762 9.73928L18.2829 9.88149ZM17.8005 19.25H6.19952V20.75H17.8005V19.25ZM4.95515 17.8815L5.71705 9.88149L4.22381 9.73928L3.46191 17.7393L4.95515 17.8815ZM6.19952 19.25C5.46234 19.25 4.88526 18.6153 4.95515 17.8815L3.46191 17.7393C3.30815 19.3538 4.57773 20.75 6.19952 20.75V19.25ZM19.0448 17.8815C19.1147 18.6153 18.5376 19.25 17.8005 19.25V20.75C19.4223 20.75 20.6918 19.3538 20.5381 17.7393L19.0448 17.8815ZM17.0386 8.75C17.683 8.75 18.2218 9.23994 18.2829 9.88149L19.7762 9.73928C19.6418 8.32788 18.4563 7.25 17.0386 7.25V8.75ZM6.96142 7.25C5.54364 7.25 4.35823 8.32788 4.22381 9.73928L5.71705 9.88149C5.77815 9.23994 6.31698 8.75 6.96142 8.75V7.25ZM8.74999 7C8.74999 5.20507 10.2051 3.75 12 3.75V2.25C9.37664 2.25 7.24999 4.37665 7.24999 7H8.74999ZM12 3.75C13.7949 3.75 15.25 5.20507 15.25 7H16.75C16.75 4.37665 14.6233 2.25 12 2.25V3.75ZM7.24999 7V11H8.74999V7H7.24999ZM15.25 7V11H16.75V7H15.25Z"/> </g>
    </symbol>

    <symbol id="icon-search" viewBox="0 0 256 256" fill="currentColor">
        <path d="M229.66,218.34l-50.07-50.06a88.11,88.11,0,1,0-11.31,11.31l50.06,50.07a8,8,0,0,0,11.32-11.32ZM40,112a72,72,0,1,1,72,72A72.08,72.08,0,0,1,40,112Z"></path>
    </symbol>

    <symbol id="icon-star" viewBox="0 0 20 20" fill="currentColor">
        <path
            d="M9.049 2.927c.3-.921 1.603-.921 1.902 0l1.07 3.292a1 1 0 00.95.69h3.462c.969 0 1.371 1.24.588 1.81l-2.8 2.034a1 1 0 00-.364 1.118l1.07 3.292c.3.921-.755 1.688-1.54 1.118l-2.8-2.034a1 1 0 00-1.175 0l-2.8 2.034c-.784.57-1.838-.197-1.539-1.118l1.07-3.292a1 1 0 00-.364-1.118L2.98 8.72c-.783-.57-.38-1.81.588-1.81h3.461a1 1 0 00.951-.69l1.07-3.292z">
        </path>
    </symbol>
</svg>